{
    "asset" : {
        "generator" : "Khronos glTF Blender I/O v0.9.36",
        "version" : "2.0"
    },
    "scene" : 0,
    "scenes" : [
        {
            "name" : "Scene",
            "nodes" : [
                0
            ]
        }
    ],
    "nodes" : [
        {
            "mesh" : 0,
            "name" : "glpower"
        }
    ],
    "meshes" : [
        {
            "name" : "glpower",
            "primitives" : [
                {
                    "attributes" : {
                        "POSITION" : 0,
                        "NORMAL" : 1
                    },
                    "indices" : 2
                }
            ]
        }
    ],
    "accessors" : [
        {
            "bufferView" : 0,
            "componentType" : 5126,
            "count" : 2090,
            "max" : [
                1.2191320657730103,
                0.32446715235710144,
                0.130000039935112
            ],
            "min" : [
                -1.0692229270935059,
                -0.33041539788246155,
                -0.1300000697374344
            ],
            "type" : "VEC3"
        },
        {
            "bufferView" : 1,
            "componentType" : 5126,
            "count" : 2090,
            "type" : "VEC3"
        },
        {
            "bufferView" : 2,
            "componentType" : 5123,
            "count" : 3453,
            "type" : "SCALAR"
        }
    ],
    "bufferViews" : [
        {
            "buffer" : 0,
            "byteLength" : 25080,
            "byteOffset" : 0
        },
        {
            "buffer" : 0,
            "byteLength" : 25080,
            "byteOffset" : 25080
        },
        {
            "buffer" : 0,
            "byteLength" : 6906,
            "byteOffset" : 50160
        }
    ],
    "buffers" : [
        {
            "byteLength" : 57068,
            "uri" : "data:application/octet-stream;base64,"
        }
    ]
}
